<svg xmlns="http://www.w3.org/2000/svg" xmlns:svg="http://www.w3.org/2000/svg" id="svg10" width="600" height="210" x="0" y="0" version="1.1" viewBox="0 0 20 7"><metadata id="metadata16"/><path id="path2" fill="#37cb43" fill-opacity="1" stroke-width="1.001" d="M 0.00476,-1.0900004e-6 C 0.00215,-1.0900004e-6 0,0.00208078 0,0.00468641 V 5.995311 c 0,0.00261 0.00215,0.00469 0.00476,0.00469 h 3.0010782 3.9717992 0.0047 V 6.9999982 H 10.987767 V 5.9999983 h 9.012232 V -1.0900004e-6 H 6.9776374 3.0058382 Z M 7.9836902,0.99999881 H 11.989127 V 4.9999984 H 9.9864083 V 5.9999983 H 7.9836902 Z m 5.0067958,0 H 18.99864 V 4.9999984 H 17.997281 V 1.9999987 h -1.001358 v 2.9999997 h -1.00136 V 1.9999987 H 14.993204 V 4.9999984 H 12.990486 Z M 9.9864083,1.9999987 V 3.9999985 H 10.987767 V 1.9999987 Z"/><path id="path6" fill="#fff" d="M 7.9728545,0.99999891 V 5.9999989 h 2 v -1 H 11.972855 V 0.99999891 Z M 10.972855,3.9999989 H 9.9728545 v -2 h 1.0000005 z"/><polygon id="polygon8" fill="#fff" points="15 2 16 2 16 5 17 5 17 1 11 1 11 5 13 5 13 2 14 2 14 5 15 5" transform="translate(1.9728545,-1.0900004e-6)"/><polygon id="polygon829" fill="#fff" points="16 5 17 5 17 1 11 1 11 5 13 5 13 2 14 2 14 5 15 5 15 2 16 2" transform="translate(-10.043612,-1.0900004e-6)"/></svg>